<svg xmlns="http://www.w3.org/2000/svg" width="160.087" height="40" viewBox="0 0 327.086 81.727"><g fill="#FFF"><path d="M111.734 29.986l12.745-5v42.627c0 6.553-3.168 14.113-13.321 14.113-6.048 0-8.353-1.513-10.153-2.304l3.96-10.297s1.656 1.08 3.24 1.08c2.16 0 3.528-1.584 3.528-5.041V29.986zm6.553-27.826c-4.176 0-7.561 3.384-7.561 7.561s3.384 7.561 7.561 7.561 7.561-3.384 7.561-7.561-3.385-7.561-7.561-7.561zM152.704 23.906c12.241 0 22.034 8.065 22.034 19.586 0 11.377-9.289 19.514-22.034 19.514-13.321 0-22.25-8.137-22.25-19.514 0-11.521 9.793-19.586 22.25-19.586zm-.073 28.226c4.969 0 8.569-3.6 8.569-8.641 0-5.112-3.816-8.713-8.569-8.713-4.824 0-8.641 3.601-8.641 8.713.001 5.042 3.457 8.641 8.641 8.641zM189.494 65.886c1.368 2.231 4.464 4.752 10.009 4.752 3.528 0 9.001-2.088 9.001-8.641v-2.736c-2.736 3.023-7.057 3.744-12.097 3.744-10.801 0-18.361-8.713-18.361-19.514s7.561-19.586 18.361-19.586c4.896 0 8.857 1.584 11.881 4.393h.216v-3.312h12.745v37.947c0 12.385-9.145 18.794-21.746 18.794-7.705 0-16.561-1.728-20.45-10.729l10.441-5.112zm10.729-13.754c4.969 0 8.569-3.6 8.569-8.641 0-5.112-3.816-8.713-8.569-8.713-4.824 0-8.641 3.601-8.641 8.713.001 5.042 3.457 8.641 8.641 8.641zM229.885 24.986h12.745v5.328h.144s4.032-6.409 11.305-6.409c4.752 0 8.064 2.305 8.064 2.305l-5.329 10.801s-2.376-2.016-6.625-2.016c-6.625 0-7.561 6.552-7.561 7.488v19.442h-12.745V24.986zM280.862 23.906c4.969 0 9.073 1.656 12.097 4.608v-3.528h12.745v36.939h-12.601V57.75h-.145c-2.736 3.023-7.057 5.256-12.097 5.256-10.801 0-18.361-8.713-18.361-19.514s7.561-19.586 18.362-19.586zm3.816 28.226c4.968 0 8.569-3.6 8.569-8.641 0-5.112-3.816-8.713-8.569-8.713-4.824 0-8.641 3.601-8.641 8.713.001 5.042 3.457 8.641 8.641 8.641zM314.34 0l12.746 4v57.925H314.34V0z"/></g><g fill="none" stroke="#FFF" stroke-width="14"><path d="M9.332 44.05c0-8.222 6.653-14.875 14.875-14.875M53.957 58.925c-8.222 0-14.875-6.653-14.875-14.875M24.207 29.175c8.222 0 14.875 6.653 14.875 14.875M68.832 44.05c0 8.222-6.653 14.875-14.875 14.875"/></g><g fill="none" stroke="#FFF" stroke-width="14" stroke-dasharray="1,2"><path d="M9.332 44.05c0 8.222 6.653 14.875 14.875 14.875M53.957 29.175c-8.222 0-14.875 6.653-14.875 14.875M24.207 58.925c8.222 0 14.875-6.653 14.875-14.875M68.832 44.05c0-8.222-6.653-14.875-14.875-14.875"/></g></svg>
